<svg id="visual" viewBox="0 0 900 600" width="900" height="600" xmlns="http://www.w3.org/2000/svg" xmlns:xlink="http://www.w3.org/1999/xlink" version="1.1"><path d="M0 429L21.5 418C43 407 86 385 128.8 375.5C171.7 366 214.3 369 257.2 376.5C300 384 343 396 385.8 404C428.7 412 471.3 416 514.2 420.5C557 425 600 430 642.8 426.8C685.7 423.7 728.3 412.3 771.2 406C814 399.7 857 398.3 878.5 397.7L900 397L900 601L878.5 601C857 601 814 601 771.2 601C728.3 601 685.7 601 642.8 601C600 601 557 601 514.2 601C471.3 601 428.7 601 385.8 601C343 601 300 601 257.2 601C214.3 601 171.7 601 128.8 601C86 601 43 601 21.5 601L0 601Z" fill="#bfdbfe"></path><path d="M0 442L21.5 436.3C43 430.7 86 419.3 128.8 418.5C171.7 417.7 214.3 427.3 257.2 435.2C300 443 343 449 385.8 443C428.7 437 471.3 419 514.2 409.5C557 400 600 399 642.8 411.5C685.7 424 728.3 450 771.2 460C814 470 857 464 878.5 461L900 458L900 601L878.5 601C857 601 814 601 771.2 601C728.3 601 685.7 601 642.8 601C600 601 557 601 514.2 601C471.3 601 428.7 601 385.8 601C343 601 300 601 257.2 601C214.3 601 171.7 601 128.8 601C86 601 43 601 21.5 601L0 601Z" fill="#8fbaf9"></path><path d="M0 505L21.5 502.3C43 499.7 86 494.3 128.8 484.2C171.7 474 214.3 459 257.2 462.7C300 466.3 343 488.7 385.8 492.5C428.7 496.3 471.3 481.7 514.2 470.8C557 460 600 453 642.8 456.7C685.7 460.3 728.3 474.7 771.2 483.7C814 492.7 857 496.3 878.5 498.2L900 500L900 601L878.5 601C857 601 814 601 771.2 601C728.3 601 685.7 601 642.8 601C600 601 557 601 514.2 601C471.3 601 428.7 601 385.8 601C343 601 300 601 257.2 601C214.3 601 171.7 601 128.8 601C86 601 43 601 21.5 601L0 601Z" fill="#6397f2"></path><path d="M0 535L21.5 531C43 527 86 519 128.8 510.2C171.7 501.3 214.3 491.7 257.2 489C300 486.3 343 490.7 385.8 497.8C428.7 505 471.3 515 514.2 514.5C557 514 600 503 642.8 505.5C685.7 508 728.3 524 771.2 526C814 528 857 516 878.5 510L900 504L900 601L878.5 601C857 601 814 601 771.2 601C728.3 601 685.7 601 642.8 601C600 601 557 601 514.2 601C471.3 601 428.7 601 385.8 601C343 601 300 601 257.2 601C214.3 601 171.7 601 128.8 601C86 601 43 601 21.5 601L0 601Z" fill="#3c74e7"></path><path d="M0 530L21.5 531.7C43 533.3 86 536.7 128.8 536.8C171.7 537 214.3 534 257.2 535.2C300 536.3 343 541.7 385.8 542.8C428.7 544 471.3 541 514.2 544.8C557 548.7 600 559.3 642.8 562C685.7 564.7 728.3 559.3 771.2 556.3C814 553.3 857 552.7 878.5 552.3L900 552L900 601L878.5 601C857 601 814 601 771.2 601C728.3 601 685.7 601 642.8 601C600 601 557 601 514.2 601C471.3 601 428.7 601 385.8 601C343 601 300 601 257.2 601C214.3 601 171.7 601 128.8 601C86 601 43 601 21.5 601L0 601Z" fill="#1d4ed8"></path></svg>